<svg xmlns="http://www.w3.org/2000/svg" width="180" height="44" viewBox="0 0 180 44" role="img" aria-label="Discord Server · Darynxia">
  <rect x="0.75" y="0.75" width="178.5" height="42.5" rx="9" fill="#161b22" stroke="#30363d"/>
  <g transform="translate(11 10)">
    <path fill="#5865F2" d="M19.5 2.1A16.1 16.1 0 0 0 15.6 1l-.5 1a14.8 14.8 0 0 0-6.2 0l-.5-1A16.1 16.1 0 0 0 4.5 2.1C2 6.2 1.3 9.2 1.6 12.2a16.2 16.2 0 0 0 4.7 2.4l1.1-1.4a10.2 10.2 0 0 1-1.7-.8l.4-.3a11.2 11.2 0 0 0 11.8 0l.4.3c-.5.3-1.1.6-1.7.8l1.1 1.4a16.2 16.2 0 0 0 4.7-2.4c.3-3-0.4-6-2.9-10.1zM8.4 10.3c-1.1 0-2-.9-2-2s.9-2 2-2 2 .9 2 2-.9 2-2 2zm7.2 0c-1.1 0-2-.9-2-2s.9-2 2-2 2 .9 2 2-.9 2-2 2z"/>
  </g>
  <text x="43" y="18" fill="#8b949e" font-family="system-ui,Segoe UI,Arial,sans-serif" font-size="10" font-weight="700" letter-spacing=".7">DISCORD SERVER</text>
  <text x="43" y="34" fill="#f0f6fc" font-family="ui-monospace,SFMono-Regular,Menlo,monospace" font-size="13" font-weight="650">Darynxia</text>
</svg>