<!-- Terraria icon from Papirus icon theme -->
<svg xmlns="http://www.w3.org/2000/svg" viewBox="0 0 16 16" role="img" aria-label="Terraria">
<path fill="#a57959" d="M7.7891 7.2051c-.2554.1458-.5462.2229-.8417.2235-.0309 0-.06-.0063-.0903-.008v3.1857l-.7274-.8114a.7619.7619 0 0 1-.6063.3.7619.7619 0 0 1-.0189.164l1.3526 1.4789v2.4166c-.9395.301-1.1429 1.014-1.1429 1.846h4.5714c0-.832-.2034-1.5446-1.1429-1.8457v-.788l1.3806-1.3337a.7619.8163 0 0 1-.0469-.2771.7619.8163 0 0 1 .1029-.4097.7619.8163 0 0 1-.0046-.0063.7619.8163 0 0 1-.0983.0074.7619.8163 0 0 1-.3217-.0766l-1.012.964v-4.8914c-.164.0514-.3337.0857-.5114.0857-.2963-.0003-.5865-.0774-.8425-.2232z"/>
<path fill="#1c8d43" d="M7.7891 0c-.4468.0006-.8754.1888-1.1908.5228-.16-.0518-.3263-.0781-.4932-.0781-.9303 0-1.6844.7958-1.6844 1.7776.0006.4189.1414.8242.3975 1.1442-.5071.3209-.8175.899-.8182 1.5229.0009.8281.5432 1.5457 1.308 1.7309.1754.8068.8554 1.3785 1.6394 1.3797.2955-.0006.5863-.0837.8417-.2406.256.1569.5463.24.8423.2406.6075-.0006 1.1675-.3458 1.4656-.904.845-.1077 1.481-.8646 1.482-1.7631 0-.0504-.003-.1009-.008-.1514.276-.3251.428-.7456.429-1.1815-.001-.8282-.543-1.546-1.308-1.7308-.159-.7297-.7343-1.2763-1.4389-1.3666C8.9561.4434 8.3956.0987 7.7891 0z"/>
</svg>